<svg xmlns="http://www.w3.org/2000/svg" xmlns:xlink="http://www.w3.org/1999/xlink" width="1080" zoomAndPan="magnify" viewBox="0 0 810 809.999993" height="1080" preserveAspectRatio="xMidYMid meet" version="1.0"><defs><clipPath id="b9ea4e66c5"><path d="M 18.738281 18.738281 L 791.261719 18.738281 L 791.261719 791.261719 L 18.738281 791.261719 Z M 18.738281 18.738281 " clip-rule="nonzero"/></clipPath><clipPath id="b0bf72c57d"><path d="M 405 18.738281 C 191.675781 18.738281 18.738281 191.675781 18.738281 405 C 18.738281 618.324219 191.675781 791.261719 405 791.261719 C 618.324219 791.261719 791.261719 618.324219 791.261719 405 C 791.261719 191.675781 618.324219 18.738281 405 18.738281 Z M 405 18.738281 " clip-rule="nonzero"/></clipPath><clipPath id="1e52cf5046"><path d="M 0.738281 0.738281 L 773.261719 0.738281 L 773.261719 773.261719 L 0.738281 773.261719 Z M 0.738281 0.738281 " clip-rule="nonzero"/></clipPath><clipPath id="8bfb42781d"><path d="M 387 0.738281 C 173.675781 0.738281 0.738281 173.675781 0.738281 387 C 0.738281 600.324219 173.675781 773.261719 387 773.261719 C 600.324219 773.261719 773.261719 600.324219 773.261719 387 C 773.261719 173.675781 600.324219 0.738281 387 0.738281 Z M 387 0.738281 " clip-rule="nonzero"/></clipPath><clipPath id="e0d78b0750"><rect x="0" width="774" y="0" height="774"/></clipPath><clipPath id="036d80fa3e"><path d="M 66.710938 288 L 743.210938 288 L 743.210938 604.488281 L 66.710938 604.488281 Z M 66.710938 288 " clip-rule="nonzero"/></clipPath><clipPath id="5579f048c1"><path d="M 366 94 L 459 94 L 459 457 L 366 457 Z M 366 94 " clip-rule="nonzero"/></clipPath><clipPath id="8436f73c30"><path d="M 270.363281 179.71875 L 454.25 93.144531 L 584.59375 370 L 400.703125 456.574219 Z M 270.363281 179.71875 " clip-rule="nonzero"/></clipPath><clipPath id="24fdc83512"><path d="M 270.363281 179.71875 L 454.25 93.144531 L 584.59375 370 L 400.703125 456.574219 Z M 270.363281 179.71875 " clip-rule="nonzero"/></clipPath></defs><g clip-path="url(#b9ea4e66c5)"><g clip-path="url(#b0bf72c57d)"><g transform="matrix(1, 0, 0, 1, 18, 18)"><g clip-path="url(#e0d78b0750)"><g clip-path="url(#1e52cf5046)"><g clip-path="url(#8bfb42781d)"><path fill="#ffffff" fill-opacity="1" d="M 0.738281 0.738281 L 773.261719 0.738281 L 773.261719 773.261719 L 0.738281 773.261719 Z M 0.738281 0.738281 " fill-rule="nonzero"/></g></g></g></g></g></g><g clip-path="url(#036d80fa3e)"><path fill="currentColor" d="M 403.972656 604.21875 C 403.886719 604.195312 403.796875 604.167969 403.707031 604.140625 C 284.207031 568.320312 66.722656 540.492188 66.722656 540.492188 L 82.539062 485.445312 C 264.105469 501.714844 400.960938 590.535156 404.972656 593.160156 C 408.984375 590.535156 545.839844 501.714844 727.40625 485.445312 L 743.222656 540.492188 C 743.222656 540.492188 525.742188 568.320312 406.242188 604.140625 C 406.148438 604.167969 406.058594 604.195312 405.972656 604.21875 C 405.746094 604.367188 405.421875 604.433594 404.972656 604.398438 C 404.523438 604.433594 404.199219 604.367188 403.972656 604.21875 Z M 404.882812 593.21875 C 404.882812 593.21875 408.945312 591.792969 405 593.175781 L 405.0625 593.21875 L 404.972656 593.1875 Z M 699.191406 434.351562 L 680.167969 440.929688 L 691.863281 456.726562 C 691.863281 456.726562 519.304688 491.667969 420.855469 576.886719 C 420.855469 576.886719 554.882812 487.957031 719.484375 468.527344 Z M 110.757812 434.351562 L 129.78125 440.929688 L 118.085938 456.726562 C 118.085938 456.726562 290.644531 491.667969 389.089844 576.886719 C 389.089844 576.886719 255.066406 487.957031 90.464844 468.527344 Z M 428.652344 362.710938 C 428.652344 362.710938 488.195312 291.609375 598.214844 288.054688 L 695.246094 423.976562 C 695.246094 423.976562 486.246094 498.507812 418.621094 569.363281 C 418.621094 569.363281 498.761719 471.753906 666.988281 415.382812 L 589.890625 303.785156 C 589.890625 303.785156 513.214844 299.414062 428.652344 362.710938 Z M 381.296875 362.710938 C 381.296875 362.710938 321.753906 291.609375 211.738281 288.054688 L 114.703125 423.976562 C 114.703125 423.976562 323.703125 498.507812 391.328125 569.363281 C 391.328125 569.363281 311.1875 471.753906 142.960938 415.382812 L 220.0625 303.785156 C 220.0625 303.785156 296.734375 299.414062 381.296875 362.710938 Z M 381.296875 362.710938 " fill-opacity="1" fill-rule="evenodd"/></g><g clip-path="url(#5579f048c1)"><g clip-path="url(#8436f73c30)"><g clip-path="url(#24fdc83512)"><path fill="currentColor" d="M 394.503906 166.386719 C 393.402344 169.253906 392.722656 172.265625 392.488281 175.328125 C 391.828125 184.101562 393.007812 194.464844 394.960938 205.5 L 386.773438 189.628906 C 385.375 194.484375 384.058594 199.46875 382.828125 204.566406 C 382.261719 206.90625 382.320312 209.351562 382.988281 211.660156 L 389.269531 233.261719 L 379.242188 220.714844 C 378.085938 226.382812 377.015625 232.179688 376.015625 238.078125 C 375.152344 243.160156 375.878906 248.378906 378.074219 253.042969 L 386.441406 270.824219 L 372.914062 258.269531 C 370.03125 268.503906 367.132812 278.925781 368.886719 292.226562 C 369.4375 296.363281 369.257812 300.5625 371.152344 304.28125 L 381.421875 324.449219 L 367.082031 311.691406 C 367.039062 312.199219 366.996094 312.707031 366.953125 313.214844 C 363.757812 335.492188 374.675781 349.132812 389.234375 360.539062 C 392.503906 383.101562 393.570312 403.625 389.816406 419.710938 C 389.230469 422.21875 389.734375 424.835938 391.171875 426.96875 C 395.917969 434.050781 398.882812 444.253906 400.667969 456.507812 C 402.765625 442.539062 406.679688 431.535156 412.144531 423.058594 C 413.617188 420.773438 413.835938 417.90625 412.660156 415.457031 C 411.507812 413.054688 409.894531 409.792969 407.96875 406.171875 C 403.992188 398.710938 405.855469 369.847656 405.855469 369.847656 L 418.941406 357.609375 C 423.507812 353.335938 427.296875 348.296875 430.097656 342.703125 L 430.140625 342.617188 C 423.003906 346.683594 415.292969 350.71875 407.203125 354.730469 C 415.148438 348.636719 423.148438 341.921875 431.195312 334.640625 C 434.382812 331.757812 436.929688 328.21875 438.59375 324.25 C 441.644531 316.996094 444.257812 309.949219 446.484375 303.09375 C 437.878906 311.941406 427.535156 320.324219 416.242188 328.449219 C 427.957031 317.847656 438.601562 305.355469 448.308594 291.199219 C 450.183594 288.460938 451.542969 285.398438 452.28125 282.164062 C 453.105469 278.589844 453.824219 275.066406 454.453125 271.589844 C 442.855469 281.347656 430.941406 289.382812 418.671875 295.492188 C 430.878906 285.527344 441.976562 274.347656 451.648438 261.613281 C 455.59375 256.410156 458.035156 250.210938 458.597656 243.707031 C 459.089844 238.046875 458.953125 232.320312 458.238281 226.503906 C 448.234375 233.84375 437.242188 240.226562 425.5 245.882812 C 435.613281 237.683594 445.039062 229.332031 453.773438 220.8125 C 456.699219 217.964844 458.433594 214.109375 458.582031 210.03125 C 458.902344 201.445312 457.601562 193.511719 455.730469 185.886719 L 425.40625 213.195312 L 451.300781 181.558594 C 453.828125 178.46875 455.3125 174.648438 455.460938 170.65625 C 455.769531 162.453125 454.292969 154.992188 452.105469 147.898438 L 424.484375 173.554688 L 447.785156 142.429688 C 450.210938 139.191406 451.484375 135.25 451.460938 131.207031 C 451.394531 119.015625 452.332031 106.808594 455.082031 94.296875 C 426.957031 106.136719 407.816406 131.785156 394.503906 166.386719 Z M 402.285156 423.109375 C 400.894531 429.882812 400.402344 439.566406 400.121094 449.941406 C 399.714844 439.90625 399.601562 430.589844 400.410156 423.5625 C 399.460938 423.523438 398.636719 423.070312 398.265625 422.289062 C 397.683594 421.050781 398.457031 419.46875 399.992188 418.746094 C 401.523438 418.023438 403.234375 418.4375 403.816406 419.675781 C 404.375 420.851562 403.6875 422.351562 402.285156 423.109375 Z M 398.453125 399.941406 C 387.03125 310.90625 394.171875 230.949219 421.195312 160.71875 C 401.027344 228.035156 397.46875 311.75 398.453125 399.941406 Z M 398.453125 399.941406 " fill-opacity="1" fill-rule="nonzero"/></g></g></g></svg>