<svg xmlns="http://www.w3.org/2000/svg" xmlns:xlink="http://www.w3.org/1999/xlink" width="1080" zoomAndPan="magnify" viewBox="0 0 810 809.999993" height="1080" preserveAspectRatio="xMidYMid meet" version="1.0"><defs><g/><clipPath id="08d943d36a"><path d="M 54.445312 215 L 728.695312 215 L 728.695312 529.984375 L 54.445312 529.984375 Z M 54.445312 215 " clip-rule="nonzero"/></clipPath><clipPath id="ae4b9372f1"><path d="M 353 21 L 446 21 L 446 383 L 353 383 Z M 353 21 " clip-rule="nonzero"/></clipPath><clipPath id="d567e09246"><path d="M 257.488281 107.039062 L 441.375 20.464844 L 571.398438 296.636719 L 387.507812 383.214844 Z M 257.488281 107.039062 " clip-rule="nonzero"/></clipPath><clipPath id="6824512acd"><path d="M 257.488281 107.039062 L 441.375 20.464844 L 571.398438 296.636719 L 387.507812 383.214844 Z M 257.488281 107.039062 " clip-rule="nonzero"/></clipPath><clipPath id="38617beafd"><rect x="0" width="777" y="0" height="165"/></clipPath><clipPath id="79b7246b39"><rect x="0" width="723" y="0" height="73"/></clipPath></defs><g clip-path="url(#08d943d36a)"><path fill="#000000" d="M 390.585938 529.710938 C 390.5 529.6875 390.410156 529.664062 390.320312 529.636719 C 271.214844 493.988281 54.457031 466.289062 54.457031 466.289062 L 70.21875 411.503906 C 251.183594 427.695312 387.585938 516.09375 391.582031 518.707031 C 395.578125 516.09375 531.980469 427.695312 712.945312 411.503906 L 728.707031 466.289062 C 728.707031 466.289062 511.945312 493.988281 392.84375 529.636719 C 392.753906 529.664062 392.664062 529.6875 392.578125 529.710938 C 392.351562 529.859375 392.027344 529.925781 391.582031 529.894531 C 391.136719 529.925781 390.8125 529.859375 390.585938 529.710938 Z M 391.492188 518.765625 C 391.492188 518.765625 395.539062 517.347656 391.609375 518.722656 L 391.671875 518.765625 L 391.582031 518.734375 Z M 684.820312 360.652344 L 665.859375 367.199219 L 677.515625 382.921875 C 677.515625 382.921875 505.53125 417.699219 407.414062 502.511719 C 407.414062 502.511719 540.992188 414.003906 705.046875 394.667969 Z M 98.34375 360.652344 L 117.304688 367.199219 L 105.648438 382.921875 C 105.648438 382.921875 277.632812 417.699219 375.753906 502.511719 C 375.753906 502.511719 242.171875 414.003906 78.121094 394.667969 Z M 415.183594 289.355469 C 415.183594 289.355469 474.527344 218.589844 584.179688 215.054688 L 680.890625 350.328125 C 680.890625 350.328125 472.585938 424.503906 405.183594 495.019531 C 405.183594 495.019531 485.058594 397.878906 652.726562 341.773438 L 575.882812 230.707031 C 575.882812 230.707031 499.464844 226.359375 415.183594 289.355469 Z M 367.984375 289.355469 C 367.984375 289.355469 308.640625 218.589844 198.988281 215.054688 L 102.277344 350.328125 C 102.277344 350.328125 310.582031 424.503906 377.984375 495.019531 C 377.984375 495.019531 298.105469 397.878906 130.441406 341.773438 L 207.285156 230.707031 C 207.285156 230.707031 283.703125 226.359375 367.984375 289.355469 Z M 367.984375 289.355469 " fill-opacity="1" fill-rule="evenodd"/></g><g clip-path="url(#ae4b9372f1)"><g clip-path="url(#d567e09246)"><g clip-path="url(#6824512acd)"><path fill="#000000" d="M 381.257812 93.746094 C 380.160156 96.605469 379.480469 99.609375 379.25 102.660156 C 378.589844 111.40625 379.765625 121.742188 381.710938 132.742188 L 373.546875 116.917969 C 372.15625 121.757812 370.84375 126.730469 369.613281 131.8125 C 369.050781 134.144531 369.109375 136.582031 369.773438 138.882812 L 376.039062 160.421875 L 366.039062 147.910156 C 364.890625 153.566406 363.820312 159.339844 362.824219 165.222656 C 361.964844 170.289062 362.6875 175.496094 364.875 180.144531 L 373.21875 197.871094 L 359.734375 185.355469 C 356.859375 195.558594 353.96875 205.949219 355.71875 219.210938 C 356.265625 223.332031 356.085938 227.519531 357.972656 231.226562 L 368.214844 251.335938 L 353.917969 238.617188 C 353.875 239.121094 353.832031 239.628906 353.789062 240.132812 C 350.605469 262.347656 361.488281 275.945312 376.003906 287.316406 C 379.265625 309.8125 380.324219 330.277344 376.585938 346.3125 C 376 348.8125 376.503906 351.421875 377.933594 353.550781 C 382.667969 360.609375 385.621094 370.78125 387.402344 383 C 389.496094 369.074219 393.398438 358.101562 398.847656 349.652344 C 400.316406 347.375 400.53125 344.511719 399.359375 342.070312 C 398.210938 339.675781 396.601562 336.425781 394.679688 332.8125 C 390.71875 325.375 392.578125 296.597656 392.578125 296.597656 L 405.621094 284.394531 C 410.171875 280.136719 413.953125 275.113281 416.742188 269.535156 L 416.785156 269.449219 C 409.671875 273.503906 401.984375 277.527344 393.917969 281.527344 C 401.839844 275.453125 409.816406 268.757812 417.839844 261.496094 C 421.015625 258.621094 423.554688 255.09375 425.214844 251.136719 C 428.253906 243.902344 430.859375 236.878906 433.082031 230.042969 C 424.503906 238.863281 414.191406 247.222656 402.929688 255.324219 C 414.609375 244.753906 425.222656 232.300781 434.898438 218.183594 C 436.773438 215.457031 438.125 212.402344 438.863281 209.179688 C 439.683594 205.613281 440.402344 202.097656 441.027344 198.636719 C 429.464844 208.363281 417.585938 216.375 405.351562 222.464844 C 417.523438 212.53125 428.585938 201.382812 438.230469 188.6875 C 442.164062 183.5 444.601562 177.320312 445.160156 170.835938 C 445.648438 165.191406 445.511719 159.480469 444.800781 153.683594 C 434.828125 161 423.867188 167.363281 412.160156 173.003906 C 422.246094 164.832031 431.640625 156.503906 440.351562 148.011719 C 443.265625 145.171875 444.992188 141.328125 445.144531 137.261719 C 445.464844 128.703125 444.167969 120.789062 442.300781 113.1875 L 412.066406 140.414062 L 437.882812 108.875 C 440.402344 105.792969 441.882812 101.980469 442.03125 98.003906 C 442.339844 89.828125 440.867188 82.386719 438.683594 75.316406 L 411.148438 100.894531 L 434.378906 69.859375 C 436.796875 66.632812 438.066406 62.703125 438.042969 58.671875 C 437.980469 46.515625 438.914062 34.347656 441.652344 21.871094 C 413.613281 33.679688 394.527344 59.25 381.257812 93.746094 Z M 389.015625 349.703125 C 387.628906 356.453125 387.136719 366.109375 386.859375 376.449219 C 386.453125 366.445312 386.335938 357.160156 387.144531 350.148438 C 386.199219 350.113281 385.375 349.660156 385.007812 348.882812 C 384.429688 347.648438 385.199219 346.070312 386.726562 345.351562 C 388.257812 344.632812 389.960938 345.042969 390.542969 346.277344 C 391.097656 347.449219 390.414062 348.945312 389.015625 349.703125 Z M 385.195312 326.601562 C 373.804688 237.832031 380.925781 158.117188 407.867188 88.097656 C 387.761719 155.210938 384.214844 238.675781 385.195312 326.601562 Z M 385.195312 326.601562 " fill-opacity="1" fill-rule="nonzero"/></g></g></g><g transform="matrix(1, 0, 0, 1, 17, 504)"><g clip-path="url(#38617beafd)"><g fill="#000000" fill-opacity="1"><g transform="translate(0.132806, 128.464568)"><g><path d="M 28.34375 -86.515625 L 28.34375 -14.328125 L 67.234375 -14.328125 L 67.234375 0 L 11.25 0 L 11.25 -86.515625 Z M 28.34375 -86.515625 "/></g></g><g transform="translate(70.202191, 128.464568)"><g><path d="M 37.9375 1.25 C 31.539062 1.25 25.925781 -0.0625 21.09375 -2.6875 C 16.257812 -5.3125 12.507812 -9.160156 9.84375 -14.234375 C 7.1875 -19.304688 5.859375 -25.429688 5.859375 -32.609375 C 5.859375 -39.785156 7.1875 -45.921875 9.84375 -51.015625 C 12.507812 -56.109375 16.257812 -59.960938 21.09375 -62.578125 C 25.925781 -65.203125 31.539062 -66.515625 37.9375 -66.515625 C 44.320312 -66.515625 49.929688 -65.203125 54.765625 -62.578125 C 59.597656 -59.960938 63.359375 -56.109375 66.046875 -51.015625 C 68.734375 -45.921875 70.078125 -39.785156 70.078125 -32.609375 C 70.078125 -25.429688 68.734375 -19.304688 66.046875 -14.234375 C 63.359375 -9.160156 59.597656 -5.3125 54.765625 -2.6875 C 49.929688 -0.0625 44.320312 1.25 37.9375 1.25 Z M 37.9375 -12.671875 C 48.070312 -12.671875 53.140625 -19.316406 53.140625 -32.609375 C 53.140625 -39.515625 51.835938 -44.570312 49.234375 -47.78125 C 46.628906 -51 42.863281 -52.609375 37.9375 -52.609375 C 27.789062 -52.609375 22.71875 -45.941406 22.71875 -32.609375 C 22.71875 -19.316406 27.789062 -12.671875 37.9375 -12.671875 Z M 37.9375 -12.671875 "/></g></g></g><g fill="#000000" fill-opacity="1"><g transform="translate(145.597797, 128.464568)"><g><path d="M 33.859375 27.703125 C 23.078125 27.703125 15.125 26.125 10 22.96875 C 4.875 19.8125 2.3125 15.410156 2.3125 9.765625 C 2.3125 6.328125 3.40625 3.515625 5.59375 1.328125 C 7.78125 -0.859375 10.925781 -2.328125 15.03125 -3.078125 L 15.03125 -4.3125 C 12.820312 -5.65625 11.234375 -7.144531 10.265625 -8.78125 C 9.296875 -10.425781 8.8125 -12.332031 8.8125 -14.5 C 8.8125 -19.75 12.226562 -23.28125 19.0625 -25.09375 L 19.0625 -26.328125 C 15.550781 -28.347656 12.90625 -30.847656 11.125 -33.828125 C 9.351562 -36.804688 8.46875 -40.40625 8.46875 -44.625 C 8.46875 -48.957031 9.460938 -52.769531 11.453125 -56.0625 C 13.441406 -59.363281 16.359375 -61.929688 20.203125 -63.765625 C 24.054688 -65.597656 28.664062 -66.515625 34.03125 -66.515625 C 39.476562 -66.515625 43.816406 -65.566406 47.046875 -63.671875 C 49.054688 -66.597656 50.222656 -69.972656 50.546875 -73.796875 L 51.78125 -74.5625 L 63.5625 -71.671875 C 63.207031 -68.554688 62.300781 -65.941406 60.84375 -63.828125 C 59.382812 -61.710938 57.113281 -59.828125 54.03125 -58.171875 L 54.03125 -56.875 C 57.695312 -53.632812 59.53125 -49.117188 59.53125 -43.328125 C 59.53125 -39.296875 58.523438 -35.679688 56.515625 -32.484375 C 54.503906 -29.296875 51.570312 -26.773438 47.71875 -24.921875 C 43.875 -23.066406 39.3125 -22.140625 34.03125 -22.140625 L 31.546875 -22.1875 C 29.960938 -22.269531 28.859375 -22.3125 28.234375 -22.3125 C 26.734375 -22.3125 25.554688 -21.90625 24.703125 -21.09375 C 23.859375 -20.289062 23.4375 -19.253906 23.4375 -17.984375 C 23.4375 -16.609375 23.988281 -15.535156 25.09375 -14.765625 C 26.195312 -13.992188 27.816406 -13.570312 29.953125 -13.5 L 44.5625 -12.953125 C 59 -12.523438 66.21875 -6.3125 66.21875 5.6875 C 66.21875 9.90625 65.140625 13.660156 62.984375 16.953125 C 60.835938 20.242188 57.359375 22.859375 52.546875 24.796875 C 47.734375 26.734375 41.503906 27.703125 33.859375 27.703125 Z M 34.03125 -33.609375 C 37.1875 -33.609375 39.648438 -34.535156 41.421875 -36.390625 C 43.203125 -38.242188 44.09375 -40.890625 44.09375 -44.328125 C 44.09375 -47.753906 43.203125 -50.382812 41.421875 -52.21875 C 39.648438 -54.0625 37.1875 -54.984375 34.03125 -54.984375 C 30.832031 -54.984375 28.363281 -54.0625 26.625 -52.21875 C 24.894531 -50.382812 24.03125 -47.753906 24.03125 -44.328125 C 24.03125 -40.859375 24.894531 -38.203125 26.625 -36.359375 C 28.363281 -34.523438 30.832031 -33.609375 34.03125 -33.609375 Z M 33.859375 15.796875 C 39.453125 15.796875 43.519531 15.003906 46.0625 13.421875 C 48.613281 11.847656 49.890625 9.800781 49.890625 7.28125 C 49.890625 5.226562 49.238281 3.71875 47.9375 2.75 C 46.632812 1.78125 44.5625 1.257812 41.71875 1.1875 L 28.828125 0.59375 C 28.390625 0.59375 27.984375 0.570312 27.609375 0.53125 C 27.234375 0.488281 26.867188 0.46875 26.515625 0.46875 C 23.753906 0.46875 21.648438 1.0625 20.203125 2.25 C 18.765625 3.4375 18.046875 5.070312 18.046875 7.15625 C 18.046875 9.914062 19.367188 12.046875 22.015625 13.546875 C 24.660156 15.046875 28.609375 15.796875 33.859375 15.796875 Z M 33.859375 15.796875 "/></g></g><g transform="translate(213.477514, 128.464568)"><g/></g><g transform="translate(242.061562, 128.464568)"><g><path d="M 28.34375 -86.515625 L 28.34375 -14.328125 L 67.234375 -14.328125 L 67.234375 0 L 11.25 0 L 11.25 -86.515625 Z M 28.34375 -86.515625 "/></g></g><g transform="translate(312.130947, 128.464568)"><g><path d="M 17.578125 -73.09375 C 14.617188 -73.09375 12.210938 -73.988281 10.359375 -75.78125 C 8.503906 -77.570312 7.578125 -79.890625 7.578125 -82.734375 C 7.578125 -85.535156 8.503906 -87.832031 10.359375 -89.625 C 12.210938 -91.425781 14.617188 -92.328125 17.578125 -92.328125 C 19.546875 -92.328125 21.300781 -91.910156 22.84375 -91.078125 C 24.382812 -90.253906 25.578125 -89.117188 26.421875 -87.671875 C 27.273438 -86.234375 27.703125 -84.585938 27.703125 -82.734375 C 27.703125 -80.878906 27.273438 -79.222656 26.421875 -77.765625 C 25.578125 -76.304688 24.382812 -75.160156 22.84375 -74.328125 C 21.300781 -73.503906 19.546875 -73.09375 17.578125 -73.09375 Z M 9.40625 0 L 9.40625 -65.28125 L 25.796875 -65.28125 L 25.796875 0 Z M 9.40625 0 "/></g></g><g transform="translate(347.284, 128.464568)"><g><path d="M 45.625 1.25 C 37.300781 1.25 31.109375 -1.867188 27.046875 -8.109375 L 25.796875 -7.875 L 25.796875 0 L 9.40625 0 L 9.40625 -91.5 L 25.796875 -91.5 L 25.796875 -57.578125 L 27.046875 -57.34375 C 29.296875 -60.457031 31.945312 -62.765625 35 -64.265625 C 38.0625 -65.765625 41.722656 -66.515625 45.984375 -66.515625 C 51.273438 -66.515625 55.890625 -65.269531 59.828125 -62.78125 C 63.773438 -60.300781 66.851562 -56.523438 69.0625 -51.453125 C 71.269531 -46.390625 72.375 -40.109375 72.375 -32.609375 C 72.375 -25.191406 71.226562 -18.945312 68.9375 -13.875 C 66.65625 -8.800781 63.5 -5.007812 59.46875 -2.5 C 55.445312 0 50.832031 1.25 45.625 1.25 Z M 40.65625 -12.671875 C 45.46875 -12.671875 49.132812 -14.273438 51.65625 -17.484375 C 54.1875 -20.703125 55.453125 -25.742188 55.453125 -32.609375 C 55.453125 -39.515625 54.1875 -44.570312 51.65625 -47.78125 C 49.132812 -51 45.46875 -52.609375 40.65625 -52.609375 C 36.039062 -52.609375 32.378906 -50.953125 29.671875 -47.640625 C 26.972656 -44.328125 25.625 -39.316406 25.625 -32.609375 C 25.625 -25.898438 26.972656 -20.898438 29.671875 -17.609375 C 32.378906 -14.316406 36.039062 -12.671875 40.65625 -12.671875 Z M 40.65625 -12.671875 "/></g></g><g transform="translate(425.461075, 128.464568)"><g><path d="M 9.40625 0 L 9.40625 -65.28125 L 25.328125 -65.28125 L 25.328125 -55.578125 L 26.578125 -55.328125 C 28.148438 -58.960938 30.21875 -61.628906 32.78125 -63.328125 C 35.351562 -65.023438 38.472656 -65.875 42.140625 -65.875 C 45.847656 -65.875 48.664062 -65.238281 50.59375 -63.96875 L 47.8125 -49.828125 L 46.578125 -49.59375 C 45.515625 -50.03125 44.488281 -50.347656 43.5 -50.546875 C 42.507812 -50.742188 41.304688 -50.84375 39.890625 -50.84375 C 35.304688 -50.84375 31.8125 -49.234375 29.40625 -46.015625 C 27 -42.796875 25.796875 -37.632812 25.796875 -30.53125 L 25.796875 0 Z M 9.40625 0 "/></g></g></g><g fill="#000000" fill-opacity="1"><g transform="translate(475.40919, 128.464568)"><g><path d="M 25.453125 1.25 C 21.265625 1.25 17.628906 0.476562 14.546875 -1.0625 C 11.472656 -2.601562 9.109375 -4.863281 7.453125 -7.84375 C 5.796875 -10.820312 4.96875 -14.398438 4.96875 -18.578125 C 4.96875 -22.441406 5.796875 -25.6875 7.453125 -28.3125 C 9.109375 -30.9375 11.671875 -33.085938 15.140625 -34.765625 C 18.617188 -36.441406 23.160156 -37.734375 28.765625 -38.640625 C 32.671875 -39.273438 35.640625 -39.96875 37.671875 -40.71875 C 39.703125 -41.46875 41.070312 -42.316406 41.78125 -43.265625 C 42.488281 -44.210938 42.84375 -45.414062 42.84375 -46.875 C 42.84375 -48.96875 42.113281 -50.566406 40.65625 -51.671875 C 39.195312 -52.773438 36.769531 -53.328125 33.375 -53.328125 C 29.75 -53.328125 26.296875 -52.515625 23.015625 -50.890625 C 19.742188 -49.273438 16.90625 -47.144531 14.5 -44.5 L 13.3125 -44.5 L 6.453125 -54.859375 C 9.765625 -58.523438 13.804688 -61.382812 18.578125 -63.4375 C 23.359375 -65.488281 28.566406 -66.515625 34.203125 -66.515625 C 42.847656 -66.515625 49.101562 -64.679688 52.96875 -61.015625 C 56.832031 -57.347656 58.765625 -52.140625 58.765625 -45.390625 L 58.765625 -17.046875 C 58.765625 -14.128906 60.046875 -12.671875 62.609375 -12.671875 C 63.597656 -12.671875 64.566406 -12.847656 65.515625 -13.203125 L 66.34375 -12.953125 L 67.53125 -1.53125 C 66.625 -0.945312 65.359375 -0.46875 63.734375 -0.09375 C 62.117188 0.28125 60.34375 0.46875 58.40625 0.46875 C 54.5 0.46875 51.453125 -0.28125 49.265625 -1.78125 C 47.078125 -3.28125 45.507812 -5.625 44.5625 -8.8125 L 43.328125 -8.9375 C 40.128906 -2.144531 34.171875 1.25 25.453125 1.25 Z M 30.65625 -11 C 34.445312 -11 37.472656 -12.269531 39.734375 -14.8125 C 42.003906 -17.363281 43.140625 -20.910156 43.140625 -25.453125 L 43.140625 -32.078125 L 42.015625 -32.3125 C 41.035156 -31.519531 39.742188 -30.859375 38.140625 -30.328125 C 36.546875 -29.796875 34.25 -29.273438 31.25 -28.765625 C 27.695312 -28.171875 25.140625 -27.148438 23.578125 -25.703125 C 22.023438 -24.265625 21.25 -22.226562 21.25 -19.59375 C 21.25 -16.789062 22.078125 -14.65625 23.734375 -13.1875 C 25.390625 -11.726562 27.695312 -11 30.65625 -11 Z M 30.65625 -11 "/></g></g><g transform="translate(544.23579, 128.464568)"><g><path d="M 9.40625 0 L 9.40625 -65.28125 L 25.328125 -65.28125 L 25.328125 -55.578125 L 26.578125 -55.328125 C 28.148438 -58.960938 30.21875 -61.628906 32.78125 -63.328125 C 35.351562 -65.023438 38.472656 -65.875 42.140625 -65.875 C 45.847656 -65.875 48.664062 -65.238281 50.59375 -63.96875 L 47.8125 -49.828125 L 46.578125 -49.59375 C 45.515625 -50.03125 44.488281 -50.347656 43.5 -50.546875 C 42.507812 -50.742188 41.304688 -50.84375 39.890625 -50.84375 C 35.304688 -50.84375 31.8125 -49.234375 29.40625 -46.015625 C 27 -42.796875 25.796875 -37.632812 25.796875 -30.53125 L 25.796875 0 Z M 9.40625 0 "/></g></g><g transform="translate(595.426684, 128.464568)"><g><path d="M 17.578125 -73.09375 C 14.617188 -73.09375 12.210938 -73.988281 10.359375 -75.78125 C 8.503906 -77.570312 7.578125 -79.890625 7.578125 -82.734375 C 7.578125 -85.535156 8.503906 -87.832031 10.359375 -89.625 C 12.210938 -91.425781 14.617188 -92.328125 17.578125 -92.328125 C 19.546875 -92.328125 21.300781 -91.910156 22.84375 -91.078125 C 24.382812 -90.253906 25.578125 -89.117188 26.421875 -87.671875 C 27.273438 -86.234375 27.703125 -84.585938 27.703125 -82.734375 C 27.703125 -80.878906 27.273438 -79.222656 26.421875 -77.765625 C 25.578125 -76.304688 24.382812 -75.160156 22.84375 -74.328125 C 21.300781 -73.503906 19.546875 -73.09375 17.578125 -73.09375 Z M 9.40625 0 L 9.40625 -65.28125 L 25.796875 -65.28125 L 25.796875 0 Z M 9.40625 0 "/></g></g><g transform="translate(630.579737, 128.464568)"><g><path d="M 25.453125 1.25 C 21.265625 1.25 17.628906 0.476562 14.546875 -1.0625 C 11.472656 -2.601562 9.109375 -4.863281 7.453125 -7.84375 C 5.796875 -10.820312 4.96875 -14.398438 4.96875 -18.578125 C 4.96875 -22.441406 5.796875 -25.6875 7.453125 -28.3125 C 9.109375 -30.9375 11.671875 -33.085938 15.140625 -34.765625 C 18.617188 -36.441406 23.160156 -37.734375 28.765625 -38.640625 C 32.671875 -39.273438 35.640625 -39.96875 37.671875 -40.71875 C 39.703125 -41.46875 41.070312 -42.316406 41.78125 -43.265625 C 42.488281 -44.210938 42.84375 -45.414062 42.84375 -46.875 C 42.84375 -48.96875 42.113281 -50.566406 40.65625 -51.671875 C 39.195312 -52.773438 36.769531 -53.328125 33.375 -53.328125 C 29.75 -53.328125 26.296875 -52.515625 23.015625 -50.890625 C 19.742188 -49.273438 16.90625 -47.144531 14.5 -44.5 L 13.3125 -44.5 L 6.453125 -54.859375 C 9.765625 -58.523438 13.804688 -61.382812 18.578125 -63.4375 C 23.359375 -65.488281 28.566406 -66.515625 34.203125 -66.515625 C 42.847656 -66.515625 49.101562 -64.679688 52.96875 -61.015625 C 56.832031 -57.347656 58.765625 -52.140625 58.765625 -45.390625 L 58.765625 -17.046875 C 58.765625 -14.128906 60.046875 -12.671875 62.609375 -12.671875 C 63.597656 -12.671875 64.566406 -12.847656 65.515625 -13.203125 L 66.34375 -12.953125 L 67.53125 -1.53125 C 66.625 -0.945312 65.359375 -0.46875 63.734375 -0.09375 C 62.117188 0.28125 60.34375 0.46875 58.40625 0.46875 C 54.5 0.46875 51.453125 -0.28125 49.265625 -1.78125 C 47.078125 -3.28125 45.507812 -5.625 44.5625 -8.8125 L 43.328125 -8.9375 C 40.128906 -2.144531 34.171875 1.25 25.453125 1.25 Z M 30.65625 -11 C 34.445312 -11 37.472656 -12.269531 39.734375 -14.8125 C 42.003906 -17.363281 43.140625 -20.910156 43.140625 -25.453125 L 43.140625 -32.078125 L 42.015625 -32.3125 C 41.035156 -31.519531 39.742188 -30.859375 38.140625 -30.328125 C 36.546875 -29.796875 34.25 -29.273438 31.25 -28.765625 C 27.695312 -28.171875 25.140625 -27.148438 23.578125 -25.703125 C 22.023438 -24.265625 21.25 -22.226562 21.25 -19.59375 C 21.25 -16.789062 22.078125 -14.65625 23.734375 -13.1875 C 25.390625 -11.726562 27.695312 -11 30.65625 -11 Z M 30.65625 -11 "/></g></g><g transform="translate(699.406337, 128.464568)"><g><path d="M 9.40625 0 L 9.40625 -65.28125 L 25.15625 -65.28125 L 25.15625 -55.6875 L 26.390625 -55.390625 C 30.453125 -62.804688 37.039062 -66.515625 46.15625 -66.515625 C 53.695312 -66.515625 59.234375 -64.460938 62.765625 -60.359375 C 66.296875 -56.253906 68.0625 -50.28125 68.0625 -42.4375 L 68.0625 0 L 51.671875 0 L 51.671875 -40.421875 C 51.671875 -44.765625 50.800781 -47.890625 49.0625 -49.796875 C 47.320312 -51.710938 44.539062 -52.671875 40.71875 -52.671875 C 36.019531 -52.671875 32.359375 -51.148438 29.734375 -48.109375 C 27.109375 -45.078125 25.796875 -40.304688 25.796875 -33.796875 L 25.796875 0 Z M 9.40625 0 "/></g></g></g></g></g><g transform="matrix(1, 0, 0, 1, 44, 671)"><g clip-path="url(#79b7246b39)"><g fill="#000000" fill-opacity="1"><g transform="translate(0.226891, 56.866184)"><g><path d="M 18.25 0 L 13.875 0 L 13.875 -14.671875 L 0.96875 -37.375 L 5.78125 -37.375 L 15.84375 -19.859375 L 16.484375 -19.859375 L 26.484375 -37.375 L 31.1875 -37.375 L 18.25 -14.671875 Z M 18.25 0 "/></g></g></g><g fill="#000000" fill-opacity="1"><g transform="translate(28.731403, 56.866184)"><g><path d="M 16.1875 0.53125 C 13.519531 0.53125 11.203125 -0.03125 9.234375 -1.15625 C 7.273438 -2.28125 5.757812 -3.9375 4.6875 -6.125 C 3.625 -8.3125 3.09375 -10.96875 3.09375 -14.09375 C 3.09375 -17.207031 3.625 -19.863281 4.6875 -22.0625 C 5.757812 -24.257812 7.273438 -25.921875 9.234375 -27.046875 C 11.203125 -28.171875 13.519531 -28.734375 16.1875 -28.734375 C 18.84375 -28.734375 21.15625 -28.171875 23.125 -27.046875 C 25.09375 -25.921875 26.609375 -24.257812 27.671875 -22.0625 C 28.734375 -19.863281 29.265625 -17.207031 29.265625 -14.09375 C 29.265625 -10.96875 28.734375 -8.3125 27.671875 -6.125 C 26.609375 -3.9375 25.09375 -2.28125 23.125 -1.15625 C 21.15625 -0.03125 18.84375 0.53125 16.1875 0.53125 Z M 16.1875 -3.203125 C 19 -3.203125 21.148438 -4.085938 22.640625 -5.859375 C 24.128906 -7.628906 24.875 -10.375 24.875 -14.09375 C 24.875 -17.820312 24.128906 -20.570312 22.640625 -22.34375 C 21.148438 -24.113281 19 -25 16.1875 -25 C 13.375 -25 11.21875 -24.109375 9.71875 -22.328125 C 8.21875 -20.546875 7.46875 -17.800781 7.46875 -14.09375 C 7.46875 -10.375 8.21875 -7.628906 9.71875 -5.859375 C 11.21875 -4.085938 13.375 -3.203125 16.1875 -3.203125 Z M 16.1875 -3.203125 "/></g></g></g><g fill="#000000" fill-opacity="1"><g transform="translate(61.096516, 56.866184)"><g><path d="M 13.9375 0.53125 C 10.75 0.53125 8.375 -0.3125 6.8125 -2 C 5.25 -3.6875 4.46875 -6.15625 4.46875 -9.40625 L 4.46875 -28.203125 L 8.640625 -28.203125 L 8.640625 -9.515625 C 8.640625 -5.234375 10.648438 -3.09375 14.671875 -3.09375 C 17.234375 -3.09375 19.253906 -3.925781 20.734375 -5.59375 C 22.210938 -7.269531 22.953125 -9.984375 22.953125 -13.734375 L 22.953125 -28.203125 L 27.125 -28.203125 L 27.125 0 L 23.1875 0 L 23.1875 -4.421875 L 22.65625 -4.546875 C 21.675781 -2.828125 20.507812 -1.550781 19.15625 -0.71875 C 17.800781 0.113281 16.0625 0.53125 13.9375 0.53125 Z M 13.9375 0.53125 "/></g></g></g><g fill="#000000" fill-opacity="1"><g transform="translate(93.129295, 56.866184)"><g><path d="M 4.90625 0 L 4.90625 -28.203125 L 8.875 -28.203125 L 8.875 -23.78125 L 9.40625 -23.65625 C 10.71875 -26.851562 13.191406 -28.453125 16.828125 -28.453125 C 18.753906 -28.453125 20.191406 -28.101562 21.140625 -27.40625 L 20.0625 -23.875 L 19.5625 -23.78125 C 18.5 -24.300781 17.335938 -24.5625 16.078125 -24.5625 C 13.828125 -24.5625 12.097656 -23.71875 10.890625 -22.03125 C 9.679688 -20.34375 9.078125 -17.609375 9.078125 -13.828125 L 9.078125 0 Z M 4.90625 0 "/></g></g></g><g fill="#000000" fill-opacity="1"><g transform="translate(114.910556, 56.866184)"><g/></g></g><g fill="#000000" fill-opacity="1"><g transform="translate(127.744116, 56.866184)"><g><path d="M 10.046875 0 L 5.65625 0 L 5.65625 -37.375 L 10.046875 -37.375 Z M 10.046875 0 "/></g></g></g><g fill="#000000" fill-opacity="1"><g transform="translate(143.466514, 56.866184)"><g><path d="M 4.90625 0 L 4.90625 -28.203125 L 8.875 -28.203125 L 8.875 -23.78125 L 9.40625 -23.65625 C 10.34375 -25.300781 11.539062 -26.554688 13 -27.421875 C 14.457031 -28.296875 16.234375 -28.734375 18.328125 -28.734375 C 21.722656 -28.734375 24.179688 -27.867188 25.703125 -26.140625 C 27.234375 -24.410156 28 -21.75 28 -18.15625 L 28 0 L 23.828125 0 L 23.828125 -18.046875 C 23.828125 -19.753906 23.609375 -21.125 23.171875 -22.15625 C 22.742188 -23.1875 22.070312 -23.9375 21.15625 -24.40625 C 20.238281 -24.875 19.039062 -25.109375 17.5625 -25.109375 C 15.019531 -25.109375 12.96875 -24.265625 11.40625 -22.578125 C 9.851562 -20.898438 9.078125 -18.195312 9.078125 -14.46875 L 9.078125 0 Z M 4.90625 0 "/></g></g></g><g fill="#000000" fill-opacity="1"><g transform="translate(175.729352, 56.866184)"><g><path d="M 6.296875 0 L 6.296875 -24.796875 L 1.375 -24.796875 L 1.375 -28.21875 L 6.296875 -28.21875 C 5.984375 -29.445312 5.828125 -30.617188 5.828125 -31.734375 C 5.828125 -33.554688 6.210938 -35.09375 6.984375 -36.34375 C 7.765625 -37.59375 8.84375 -38.523438 10.21875 -39.140625 C 11.601562 -39.753906 13.195312 -40.0625 15 -40.0625 C 17.8125 -40.0625 19.96875 -39.457031 21.46875 -38.25 L 19.859375 -35.3125 L 19.328125 -35.203125 C 18.222656 -36.085938 16.78125 -36.53125 15 -36.53125 C 13.351562 -36.53125 12.109375 -36.101562 11.265625 -35.25 C 10.421875 -34.40625 10 -33.195312 10 -31.625 C 10 -30.65625 10.148438 -29.519531 10.453125 -28.21875 L 19.4375 -28.21875 L 19.4375 -24.796875 L 10.453125 -24.796875 L 10.453125 0 Z M 6.296875 0 "/></g></g></g><g fill="#000000" fill-opacity="1"><g transform="translate(195.823332, 56.866184)"><g><path d="M 4.90625 0 L 4.90625 -28.203125 L 8.875 -28.203125 L 8.875 -23.78125 L 9.40625 -23.65625 C 10.71875 -26.851562 13.191406 -28.453125 16.828125 -28.453125 C 18.753906 -28.453125 20.191406 -28.101562 21.140625 -27.40625 L 20.0625 -23.875 L 19.5625 -23.78125 C 18.5 -24.300781 17.335938 -24.5625 16.078125 -24.5625 C 13.828125 -24.5625 12.097656 -23.71875 10.890625 -22.03125 C 9.679688 -20.34375 9.078125 -17.609375 9.078125 -13.828125 L 9.078125 0 Z M 4.90625 0 "/></g></g></g><g fill="#000000" fill-opacity="1"><g transform="translate(217.067692, 56.866184)"><g><path d="M 11.625 0.53125 C 8.851562 0.53125 6.6875 -0.191406 5.125 -1.640625 C 3.5625 -3.085938 2.78125 -5.15625 2.78125 -7.84375 C 2.78125 -9.519531 3.125 -10.929688 3.8125 -12.078125 C 4.507812 -13.234375 5.582031 -14.171875 7.03125 -14.890625 C 8.476562 -15.617188 10.367188 -16.175781 12.703125 -16.5625 C 14.753906 -16.90625 16.3125 -17.289062 17.375 -17.71875 C 18.4375 -18.144531 19.148438 -18.617188 19.515625 -19.140625 C 19.878906 -19.671875 20.0625 -20.335938 20.0625 -21.140625 C 20.0625 -22.421875 19.625 -23.398438 18.75 -24.078125 C 17.875 -24.765625 16.460938 -25.109375 14.515625 -25.109375 C 12.691406 -25.109375 11.128906 -24.753906 9.828125 -24.046875 C 8.523438 -23.335938 7.328125 -22.285156 6.234375 -20.890625 L 5.734375 -20.890625 L 3.6875 -23.78125 C 4.875 -25.289062 6.390625 -26.492188 8.234375 -27.390625 C 10.078125 -28.285156 12.171875 -28.734375 14.515625 -28.734375 C 17.835938 -28.734375 20.285156 -28.003906 21.859375 -26.546875 C 23.441406 -25.085938 24.234375 -23.070312 24.234375 -20.5 L 24.234375 -5.546875 C 24.234375 -3.984375 24.898438 -3.203125 26.234375 -3.203125 C 26.671875 -3.203125 27.097656 -3.273438 27.515625 -3.421875 L 27.859375 -3.328125 L 28.359375 -0.4375 C 28.046875 -0.226562 27.640625 -0.0703125 27.140625 0.03125 C 26.640625 0.144531 26.125 0.203125 25.59375 0.203125 C 24.039062 0.203125 22.867188 -0.132812 22.078125 -0.8125 C 21.285156 -1.5 20.78125 -2.503906 20.5625 -3.828125 L 20.015625 -3.890625 C 19.210938 -2.398438 18.128906 -1.289062 16.765625 -0.5625 C 15.398438 0.164062 13.6875 0.53125 11.625 0.53125 Z M 12.546875 -2.78125 C 14.117188 -2.78125 15.476562 -3.140625 16.625 -3.859375 C 17.78125 -4.585938 18.664062 -5.609375 19.28125 -6.921875 C 19.894531 -8.234375 20.203125 -9.753906 20.203125 -11.484375 L 20.203125 -15.0625 L 19.71875 -15.15625 C 19.082031 -14.71875 18.3125 -14.347656 17.40625 -14.046875 C 16.507812 -13.742188 15.25 -13.476562 13.625 -13.25 C 11.988281 -13.019531 10.6875 -12.675781 9.71875 -12.21875 C 8.757812 -11.757812 8.078125 -11.175781 7.671875 -10.46875 C 7.265625 -9.757812 7.0625 -8.882812 7.0625 -7.84375 C 7.0625 -6.195312 7.546875 -4.941406 8.515625 -4.078125 C 9.484375 -3.210938 10.828125 -2.78125 12.546875 -2.78125 Z M 12.546875 -2.78125 "/></g></g></g><g fill="#000000" fill-opacity="1"><g transform="translate(246.237206, 56.866184)"><g><path d="M 12.859375 0.53125 C 11.085938 0.53125 9.445312 0.296875 7.9375 -0.171875 C 6.425781 -0.640625 5.148438 -1.28125 4.109375 -2.09375 C 3.078125 -2.914062 2.347656 -3.835938 1.921875 -4.859375 L 4.375 -7.421875 L 4.90625 -7.421875 C 5.832031 -6.015625 6.941406 -4.957031 8.234375 -4.25 C 9.523438 -3.550781 11.066406 -3.203125 12.859375 -3.203125 C 14.941406 -3.203125 16.519531 -3.601562 17.59375 -4.40625 C 18.675781 -5.21875 19.21875 -6.347656 19.21875 -7.796875 C 19.21875 -8.898438 18.890625 -9.8125 18.234375 -10.53125 C 17.578125 -11.257812 16.519531 -11.804688 15.0625 -12.171875 L 10.296875 -13.34375 C 7.765625 -13.957031 5.910156 -14.925781 4.734375 -16.25 C 3.566406 -17.582031 2.984375 -19.226562 2.984375 -21.1875 C 2.984375 -22.726562 3.375 -24.0625 4.15625 -25.1875 C 4.945312 -26.320312 6.078125 -27.195312 7.546875 -27.8125 C 9.023438 -28.425781 10.78125 -28.734375 12.8125 -28.734375 C 15.394531 -28.734375 17.429688 -28.367188 18.921875 -27.640625 C 20.421875 -26.921875 21.585938 -25.914062 22.421875 -24.625 L 20.0625 -22.3125 L 19.5625 -22.3125 C 18.65625 -23.351562 17.664062 -24.101562 16.59375 -24.5625 C 15.53125 -25.03125 14.269531 -25.265625 12.8125 -25.265625 C 10.945312 -25.265625 9.519531 -24.929688 8.53125 -24.265625 C 7.550781 -23.597656 7.0625 -22.632812 7.0625 -21.375 C 7.0625 -20.226562 7.410156 -19.304688 8.109375 -18.609375 C 8.804688 -17.910156 10.023438 -17.347656 11.765625 -16.921875 L 16.4375 -15.796875 C 18.894531 -15.222656 20.664062 -14.257812 21.75 -12.90625 C 22.84375 -11.5625 23.390625 -9.875 23.390625 -7.84375 C 23.390625 -6.195312 23 -4.738281 22.21875 -3.46875 C 21.4375 -2.207031 20.25 -1.222656 18.65625 -0.515625 C 17.070312 0.179688 15.140625 0.53125 12.859375 0.53125 Z M 12.859375 0.53125 "/></g></g></g><g fill="#000000" fill-opacity="1"><g transform="translate(272.313364, 56.866184)"><g><path d="M 19.078125 -4.46875 L 20.40625 -1.484375 C 19.738281 -0.816406 18.863281 -0.316406 17.78125 0.015625 C 16.695312 0.359375 15.523438 0.53125 14.265625 0.53125 C 8.878906 0.53125 6.1875 -2.191406 6.1875 -7.640625 L 6.1875 -24.796875 L 1.28125 -24.796875 L 1.28125 -28.21875 L 6.1875 -28.21875 L 6.1875 -34.1875 L 10.359375 -34.875 L 10.359375 -28.21875 L 19.4375 -28.21875 L 19.4375 -24.796875 L 10.359375 -24.796875 L 10.359375 -8.046875 C 10.359375 -4.816406 11.765625 -3.203125 14.578125 -3.203125 C 16.109375 -3.203125 17.425781 -3.625 18.53125 -4.46875 Z M 19.078125 -4.46875 "/></g></g></g><g fill="#000000" fill-opacity="1"><g transform="translate(293.787847, 56.866184)"><g><path d="M 4.90625 0 L 4.90625 -28.203125 L 8.875 -28.203125 L 8.875 -23.78125 L 9.40625 -23.65625 C 10.71875 -26.851562 13.191406 -28.453125 16.828125 -28.453125 C 18.753906 -28.453125 20.191406 -28.101562 21.140625 -27.40625 L 20.0625 -23.875 L 19.5625 -23.78125 C 18.5 -24.300781 17.335938 -24.5625 16.078125 -24.5625 C 13.828125 -24.5625 12.097656 -23.71875 10.890625 -22.03125 C 9.679688 -20.34375 9.078125 -17.609375 9.078125 -13.828125 L 9.078125 0 Z M 4.90625 0 "/></g></g></g><g fill="#000000" fill-opacity="1"><g transform="translate(315.569108, 56.866184)"><g><path d="M 13.9375 0.53125 C 10.75 0.53125 8.375 -0.3125 6.8125 -2 C 5.25 -3.6875 4.46875 -6.15625 4.46875 -9.40625 L 4.46875 -28.203125 L 8.640625 -28.203125 L 8.640625 -9.515625 C 8.640625 -5.234375 10.648438 -3.09375 14.671875 -3.09375 C 17.234375 -3.09375 19.253906 -3.925781 20.734375 -5.59375 C 22.210938 -7.269531 22.953125 -9.984375 22.953125 -13.734375 L 22.953125 -28.203125 L 27.125 -28.203125 L 27.125 0 L 23.1875 0 L 23.1875 -4.421875 L 22.65625 -4.546875 C 21.675781 -2.828125 20.507812 -1.550781 19.15625 -0.71875 C 17.800781 0.113281 16.0625 0.53125 13.9375 0.53125 Z M 13.9375 0.53125 "/></g></g></g><g fill="#000000" fill-opacity="1"><g transform="translate(347.601871, 56.866184)"><g><path d="M 16.1875 0.53125 C 13.695312 0.53125 11.460938 -0.03125 9.484375 -1.15625 C 7.503906 -2.289062 5.941406 -3.960938 4.796875 -6.171875 C 3.660156 -8.378906 3.09375 -11.019531 3.09375 -14.09375 C 3.09375 -17.175781 3.660156 -19.820312 4.796875 -22.03125 C 5.941406 -24.238281 7.503906 -25.90625 9.484375 -27.03125 C 11.460938 -28.164062 13.695312 -28.734375 16.1875 -28.734375 C 19.164062 -28.734375 21.535156 -28.171875 23.296875 -27.046875 C 25.066406 -25.921875 26.34375 -24.421875 27.125 -22.546875 L 24.28125 -20.5 L 23.78125 -20.5 C 23.007812 -22.050781 22.019531 -23.1875 20.8125 -23.90625 C 19.613281 -24.632812 18.070312 -25 16.1875 -25 C 14.445312 -25 12.921875 -24.585938 11.609375 -23.765625 C 10.296875 -22.953125 9.273438 -21.726562 8.546875 -20.09375 C 7.828125 -18.457031 7.46875 -16.457031 7.46875 -14.09375 C 7.46875 -11.738281 7.832031 -9.742188 8.5625 -8.109375 C 9.289062 -6.484375 10.304688 -5.257812 11.609375 -4.4375 C 12.921875 -3.613281 14.445312 -3.203125 16.1875 -3.203125 C 18.144531 -3.203125 19.765625 -3.644531 21.046875 -4.53125 C 22.335938 -5.414062 23.347656 -6.8125 24.078125 -8.71875 L 24.625 -8.71875 L 27.359375 -7.109375 C 26.617188 -4.734375 25.304688 -2.863281 23.421875 -1.5 C 21.546875 -0.144531 19.132812 0.53125 16.1875 0.53125 Z M 16.1875 0.53125 "/></g></g></g><g fill="#000000" fill-opacity="1"><g transform="translate(376.669141, 56.866184)"><g><path d="M 19.078125 -4.46875 L 20.40625 -1.484375 C 19.738281 -0.816406 18.863281 -0.316406 17.78125 0.015625 C 16.695312 0.359375 15.523438 0.53125 14.265625 0.53125 C 8.878906 0.53125 6.1875 -2.191406 6.1875 -7.640625 L 6.1875 -24.796875 L 1.28125 -24.796875 L 1.28125 -28.21875 L 6.1875 -28.21875 L 6.1875 -34.1875 L 10.359375 -34.875 L 10.359375 -28.21875 L 19.4375 -28.21875 L 19.4375 -24.796875 L 10.359375 -24.796875 L 10.359375 -8.046875 C 10.359375 -4.816406 11.765625 -3.203125 14.578125 -3.203125 C 16.109375 -3.203125 17.425781 -3.625 18.53125 -4.46875 Z M 19.078125 -4.46875 "/></g></g></g><g fill="#000000" fill-opacity="1"><g transform="translate(398.143624, 56.866184)"><g><path d="M 13.9375 0.53125 C 10.75 0.53125 8.375 -0.3125 6.8125 -2 C 5.25 -3.6875 4.46875 -6.15625 4.46875 -9.40625 L 4.46875 -28.203125 L 8.640625 -28.203125 L 8.640625 -9.515625 C 8.640625 -5.234375 10.648438 -3.09375 14.671875 -3.09375 C 17.234375 -3.09375 19.253906 -3.925781 20.734375 -5.59375 C 22.210938 -7.269531 22.953125 -9.984375 22.953125 -13.734375 L 22.953125 -28.203125 L 27.125 -28.203125 L 27.125 0 L 23.1875 0 L 23.1875 -4.421875 L 22.65625 -4.546875 C 21.675781 -2.828125 20.507812 -1.550781 19.15625 -0.71875 C 17.800781 0.113281 16.0625 0.53125 13.9375 0.53125 Z M 13.9375 0.53125 "/></g></g></g><g fill="#000000" fill-opacity="1"><g transform="translate(430.176387, 56.866184)"><g><path d="M 4.90625 0 L 4.90625 -28.203125 L 8.875 -28.203125 L 8.875 -23.78125 L 9.40625 -23.65625 C 10.71875 -26.851562 13.191406 -28.453125 16.828125 -28.453125 C 18.753906 -28.453125 20.191406 -28.101562 21.140625 -27.40625 L 20.0625 -23.875 L 19.5625 -23.78125 C 18.5 -24.300781 17.335938 -24.5625 16.078125 -24.5625 C 13.828125 -24.5625 12.097656 -23.71875 10.890625 -22.03125 C 9.679688 -20.34375 9.078125 -17.609375 9.078125 -13.828125 L 9.078125 0 Z M 4.90625 0 "/></g></g></g><g fill="#000000" fill-opacity="1"><g transform="translate(451.216212, 56.866184)"><g><path d="M 26.875 -13.140625 L 7.484375 -13.140625 C 7.609375 -9.710938 8.429688 -7.195312 9.953125 -5.59375 C 11.484375 -4 13.578125 -3.203125 16.234375 -3.203125 C 18.242188 -3.203125 19.863281 -3.554688 21.09375 -4.265625 C 22.320312 -4.984375 23.285156 -6.109375 23.984375 -7.640625 L 24.515625 -7.640625 L 27.234375 -6.03125 C 26.410156 -3.988281 25.097656 -2.382812 23.296875 -1.21875 C 21.503906 -0.0507812 19.148438 0.53125 16.234375 0.53125 C 13.503906 0.53125 11.160156 -0.00390625 9.203125 -1.078125 C 7.242188 -2.148438 5.734375 -3.773438 4.671875 -5.953125 C 3.617188 -8.140625 3.09375 -10.851562 3.09375 -14.09375 C 3.09375 -17.289062 3.648438 -19.988281 4.765625 -22.1875 C 5.878906 -24.382812 7.40625 -26.023438 9.34375 -27.109375 C 11.28125 -28.191406 13.492188 -28.734375 15.984375 -28.734375 C 19.597656 -28.734375 22.414062 -27.710938 24.4375 -25.671875 C 26.46875 -23.640625 27.492188 -20.625 27.515625 -16.625 C 27.515625 -15.050781 27.476562 -13.992188 27.40625 -13.453125 Z M 23.390625 -16.625 C 23.328125 -19.625 22.660156 -21.800781 21.390625 -23.15625 C 20.128906 -24.519531 18.328125 -25.203125 15.984375 -25.203125 C 13.503906 -25.203125 11.5625 -24.515625 10.15625 -23.140625 C 8.75 -21.773438 7.894531 -19.601562 7.59375 -16.625 Z M 23.390625 -16.625 "/></g></g></g><g fill="#000000" fill-opacity="1"><g transform="translate(480.308945, 56.866184)"><g><path d="M 1.609375 7.796875 C 3.085938 6.828125 4.335938 5.703125 5.359375 4.421875 C 6.390625 3.140625 6.921875 1.734375 6.953125 0.203125 C 5.953125 0.203125 5.164062 -0.0664062 4.59375 -0.609375 C 4.019531 -1.160156 3.734375 -1.882812 3.734375 -2.78125 C 3.734375 -3.664062 4.007812 -4.394531 4.5625 -4.96875 C 5.113281 -5.539062 5.851562 -5.828125 6.78125 -5.828125 C 7.78125 -5.828125 8.59375 -5.476562 9.21875 -4.78125 C 9.84375 -4.082031 10.15625 -2.984375 10.15625 -1.484375 C 10.15625 1.171875 9.582031 3.40625 8.4375 5.21875 C 7.289062 7.039062 5.601562 8.703125 3.375 10.203125 Z M 1.609375 7.796875 "/></g></g></g><g fill="#000000" fill-opacity="1"><g transform="translate(494.190672, 56.866184)"><g/></g></g><g fill="#000000" fill-opacity="1"><g transform="translate(507.024248, 56.866184)"><g><path d="M 10.046875 0 L 5.65625 0 L 5.65625 -37.375 L 10.046875 -37.375 Z M 10.046875 0 "/></g></g></g><g fill="#000000" fill-opacity="1"><g transform="translate(522.746645, 56.866184)"><g><path d="M 4.90625 0 L 4.90625 -28.203125 L 8.875 -28.203125 L 8.875 -23.78125 L 9.40625 -23.65625 C 10.34375 -25.300781 11.539062 -26.554688 13 -27.421875 C 14.457031 -28.296875 16.234375 -28.734375 18.328125 -28.734375 C 21.722656 -28.734375 24.179688 -27.867188 25.703125 -26.140625 C 27.234375 -24.410156 28 -21.75 28 -18.15625 L 28 0 L 23.828125 0 L 23.828125 -18.046875 C 23.828125 -19.753906 23.609375 -21.125 23.171875 -22.15625 C 22.742188 -23.1875 22.070312 -23.9375 21.15625 -24.40625 C 20.238281 -24.875 19.039062 -25.109375 17.5625 -25.109375 C 15.019531 -25.109375 12.96875 -24.265625 11.40625 -22.578125 C 9.851562 -20.898438 9.078125 -18.195312 9.078125 -14.46875 L 9.078125 0 Z M 4.90625 0 "/></g></g></g><g fill="#000000" fill-opacity="1"><g transform="translate(555.213971, 56.866184)"><g><path d="M 14.625 0.53125 C 12.351562 0.53125 10.351562 -0.00390625 8.625 -1.078125 C 6.894531 -2.160156 5.539062 -3.789062 4.5625 -5.96875 C 3.582031 -8.15625 3.09375 -10.863281 3.09375 -14.09375 C 3.09375 -17.3125 3.601562 -20.015625 4.625 -22.203125 C 5.644531 -24.390625 7.054688 -26.023438 8.859375 -27.109375 C 10.660156 -28.191406 12.742188 -28.734375 15.109375 -28.734375 C 16.984375 -28.734375 18.671875 -28.378906 20.171875 -27.671875 C 21.671875 -26.960938 22.957031 -25.800781 24.03125 -24.1875 L 24.5625 -24.28125 L 24.5625 -39.53125 L 28.734375 -39.53125 L 28.734375 0 L 24.5625 0 L 24.5625 -4.109375 L 24.03125 -4.21875 C 23.113281 -2.820312 21.863281 -1.679688 20.28125 -0.796875 C 18.707031 0.0859375 16.820312 0.53125 14.625 0.53125 Z M 15.921875 -3.203125 C 18.546875 -3.203125 20.640625 -4.097656 22.203125 -5.890625 C 23.773438 -7.691406 24.5625 -10.425781 24.5625 -14.09375 C 24.5625 -17.769531 23.773438 -20.503906 22.203125 -22.296875 C 20.640625 -24.097656 18.546875 -25 15.921875 -25 C 13.210938 -25 11.125 -24.117188 9.65625 -22.359375 C 8.195312 -20.609375 7.46875 -17.851562 7.46875 -14.09375 C 7.46875 -6.832031 10.285156 -3.203125 15.921875 -3.203125 Z M 15.921875 -3.203125 "/></g></g></g><g fill="#000000" fill-opacity="1"><g transform="translate(588.882916, 56.866184)"><g><path d="M 26.875 -13.140625 L 7.484375 -13.140625 C 7.609375 -9.710938 8.429688 -7.195312 9.953125 -5.59375 C 11.484375 -4 13.578125 -3.203125 16.234375 -3.203125 C 18.242188 -3.203125 19.863281 -3.554688 21.09375 -4.265625 C 22.320312 -4.984375 23.285156 -6.109375 23.984375 -7.640625 L 24.515625 -7.640625 L 27.234375 -6.03125 C 26.410156 -3.988281 25.097656 -2.382812 23.296875 -1.21875 C 21.503906 -0.0507812 19.148438 0.53125 16.234375 0.53125 C 13.503906 0.53125 11.160156 -0.00390625 9.203125 -1.078125 C 7.242188 -2.148438 5.734375 -3.773438 4.671875 -5.953125 C 3.617188 -8.140625 3.09375 -10.851562 3.09375 -14.09375 C 3.09375 -17.289062 3.648438 -19.988281 4.765625 -22.1875 C 5.878906 -24.382812 7.40625 -26.023438 9.34375 -27.109375 C 11.28125 -28.191406 13.492188 -28.734375 15.984375 -28.734375 C 19.597656 -28.734375 22.414062 -27.710938 24.4375 -25.671875 C 26.46875 -23.640625 27.492188 -20.625 27.515625 -16.625 C 27.515625 -15.050781 27.476562 -13.992188 27.40625 -13.453125 Z M 23.390625 -16.625 C 23.328125 -19.625 22.660156 -21.800781 21.390625 -23.15625 C 20.128906 -24.519531 18.328125 -25.203125 15.984375 -25.203125 C 13.503906 -25.203125 11.5625 -24.515625 10.15625 -23.140625 C 8.75 -21.773438 7.894531 -19.601562 7.59375 -16.625 Z M 23.390625 -16.625 "/></g></g></g><g fill="#000000" fill-opacity="1"><g transform="translate(618.512598, 56.866184)"><g><path d="M 5.875 0 L 1.28125 0 L 10 -14.625 L 1.71875 -28.203125 L 6.421875 -28.203125 L 12.9375 -17.359375 L 13.53125 -17.359375 L 20.0625 -28.203125 L 24.5625 -28.203125 L 16.484375 -14.625 L 25 0 L 20.296875 0 L 13.34375 -11.90625 L 12.75 -11.90625 Z M 5.875 0 "/></g></g></g><g fill="#000000" fill-opacity="1"><g transform="translate(644.256358, 56.866184)"><g><path d="M 26.875 -13.140625 L 7.484375 -13.140625 C 7.609375 -9.710938 8.429688 -7.195312 9.953125 -5.59375 C 11.484375 -4 13.578125 -3.203125 16.234375 -3.203125 C 18.242188 -3.203125 19.863281 -3.554688 21.09375 -4.265625 C 22.320312 -4.984375 23.285156 -6.109375 23.984375 -7.640625 L 24.515625 -7.640625 L 27.234375 -6.03125 C 26.410156 -3.988281 25.097656 -2.382812 23.296875 -1.21875 C 21.503906 -0.0507812 19.148438 0.53125 16.234375 0.53125 C 13.503906 0.53125 11.160156 -0.00390625 9.203125 -1.078125 C 7.242188 -2.148438 5.734375 -3.773438 4.671875 -5.953125 C 3.617188 -8.140625 3.09375 -10.851562 3.09375 -14.09375 C 3.09375 -17.289062 3.648438 -19.988281 4.765625 -22.1875 C 5.878906 -24.382812 7.40625 -26.023438 9.34375 -27.109375 C 11.28125 -28.191406 13.492188 -28.734375 15.984375 -28.734375 C 19.597656 -28.734375 22.414062 -27.710938 24.4375 -25.671875 C 26.46875 -23.640625 27.492188 -20.625 27.515625 -16.625 C 27.515625 -15.050781 27.476562 -13.992188 27.40625 -13.453125 Z M 23.390625 -16.625 C 23.328125 -19.625 22.660156 -21.800781 21.390625 -23.15625 C 20.128906 -24.519531 18.328125 -25.203125 15.984375 -25.203125 C 13.503906 -25.203125 11.5625 -24.515625 10.15625 -23.140625 C 8.75 -21.773438 7.894531 -19.601562 7.59375 -16.625 Z M 23.390625 -16.625 "/></g></g></g><g fill="#000000" fill-opacity="1"><g transform="translate(674.320634, 56.866184)"><g><path d="M 14.625 0.53125 C 12.351562 0.53125 10.351562 -0.00390625 8.625 -1.078125 C 6.894531 -2.160156 5.539062 -3.789062 4.5625 -5.96875 C 3.582031 -8.15625 3.09375 -10.863281 3.09375 -14.09375 C 3.09375 -17.3125 3.601562 -20.015625 4.625 -22.203125 C 5.644531 -24.390625 7.054688 -26.023438 8.859375 -27.109375 C 10.660156 -28.191406 12.742188 -28.734375 15.109375 -28.734375 C 16.984375 -28.734375 18.671875 -28.378906 20.171875 -27.671875 C 21.671875 -26.960938 22.957031 -25.800781 24.03125 -24.1875 L 24.5625 -24.28125 L 24.5625 -39.53125 L 28.734375 -39.53125 L 28.734375 0 L 24.5625 0 L 24.5625 -4.109375 L 24.03125 -4.21875 C 23.113281 -2.820312 21.863281 -1.679688 20.28125 -0.796875 C 18.707031 0.0859375 16.820312 0.53125 14.625 0.53125 Z M 15.921875 -3.203125 C 18.546875 -3.203125 20.640625 -4.097656 22.203125 -5.890625 C 23.773438 -7.691406 24.5625 -10.425781 24.5625 -14.09375 C 24.5625 -17.769531 23.773438 -20.503906 22.203125 -22.296875 C 20.640625 -24.097656 18.546875 -25 15.921875 -25 C 13.210938 -25 11.125 -24.117188 9.65625 -22.359375 C 8.195312 -20.609375 7.46875 -17.851562 7.46875 -14.09375 C 7.46875 -6.832031 10.285156 -3.203125 15.921875 -3.203125 Z M 15.921875 -3.203125 "/></g></g></g><g fill="#000000" fill-opacity="1"><g transform="translate(707.989516, 56.866184)"><g><path d="M 6.875 0.25 C 5.90625 0.25 5.140625 -0.0195312 4.578125 -0.5625 C 4.015625 -1.101562 3.734375 -1.828125 3.734375 -2.734375 C 3.734375 -3.617188 4.015625 -4.347656 4.578125 -4.921875 C 5.140625 -5.492188 5.90625 -5.78125 6.875 -5.78125 C 7.863281 -5.78125 8.640625 -5.503906 9.203125 -4.953125 C 9.765625 -4.410156 10.046875 -3.6875 10.046875 -2.78125 C 10.046875 -1.882812 9.757812 -1.15625 9.1875 -0.59375 C 8.613281 -0.03125 7.84375 0.25 6.875 0.25 Z M 6.875 0.25 "/></g></g></g></g></g></svg>